# Wavefront OBJ file automatically generated by Tiled2Unity

# Vertices (Count = 88)
v -18 -20 0.00390625
v -20 -20 0.00390625
v -20 -18 0.00390625
v -18 -18 0.00390625
v -18 -20 -0.0078125
v -20 -20 -0.0078125
v -20 -18 -0.0078125
v -18 -18 -0.0078125
v -18 -20 -0.01171875
v -20 -20 -0.01171875
v -20 -18 -0.01171875
v -18 -18 -0.01171875
v -18 -20 -0.015625
v -20 -20 -0.015625
v -20 -18 -0.015625
v -18 -18 -0.015625
v -16 -20 0.00390625
v -16 -18 0.00390625
v -16 -20 -0.0078125
v -16 -18 -0.0078125
v -16 -20 -0.01171875
v -16 -18 -0.01171875
v -16 -20 -0.015625
v -16 -18 -0.015625
v -14 -20 0.00390625
v -14 -18 0.00390625
v -14 -20 -0.0078125
v -14 -18 -0.0078125
v -14 -20 -0.01171875
v -14 -18 -0.01171875
v -14 -20 -0.015625
v -14 -18 -0.015625
v -12 -20 0.00390625
v -12 -18 0.00390625
v -12 -20 -0.0078125
v -12 -18 -0.0078125
v -12 -20 -0.01171875
v -12 -18 -0.01171875
v -12 -20 -0.015625
v -12 -18 -0.015625
v -10 -20 0.00390625
v -10 -18 0.00390625
v -10 -20 -0.0078125
v -10 -18 -0.0078125
v -10 -20 -0.01171875
v -10 -18 -0.01171875
v -10 -20 -0.015625
v -10 -18 -0.015625
v -8 -20 0.00390625
v -8 -18 0.00390625
v -8 -20 -0.0078125
v -8 -18 -0.0078125
v -8 -20 -0.01171875
v -8 -18 -0.01171875
v -8 -20 -0.015625
v -8 -18 -0.015625
v -6 -20 0.00390625
v -6 -18 0.00390625
v -6 -20 -0.0078125
v -6 -18 -0.0078125
v -6 -20 -0.01171875
v -6 -18 -0.01171875
v -6 -20 -0.015625
v -6 -18 -0.015625
v -4 -20 0.00390625
v -4 -18 0.00390625
v -4 -20 -0.0078125
v -4 -18 -0.0078125
v -4 -20 -0.01171875
v -4 -18 -0.01171875
v -4 -20 -0.015625
v -4 -18 -0.015625
v -2 -20 0.00390625
v -2 -18 0.00390625
v -2 -20 -0.0078125
v -2 -18 -0.0078125
v -2 -20 -0.01171875
v -2 -18 -0.01171875
v -2 -20 -0.015625
v -2 -18 -0.015625
v 0 -20 0.00390625
v 0 -18 0.00390625
v 0 -20 -0.0078125
v 0 -18 -0.0078125
v 0 -20 -0.01171875
v 0 -18 -0.01171875
v 0 -20 -0.015625
v 0 -18 -0.015625

# Texture Coorindates (Count = 16)
vt 0.2501221 0.8751221
vt 0.3748779 0.8751221
vt 0.3748779 0.9998779
vt 0.2501221 0.9998779
vt 0.7501221 0.8751221
vt 0.8748779 0.8751221
vt 0.8748779 0.9998779
vt 0.7501221 0.9998779
vt 0.2501221 0.3751221
vt 0.3748779 0.3751221
vt 0.3748779 0.4998779
vt 0.2501221 0.4998779
vt 0.7501221 0.3751221
vt 0.8748779 0.3751221
vt 0.8748779 0.4998779
vt 0.7501221 0.4998779

# Normal
vn 0 0 -1

# Groups (Count = 1)
g mesh_[00]_[00]
f  1/1/1  2/2/1  3/3/1  4/4/1 
f  5/5/1  6/6/1  7/7/1  8/8/1 
f  9/9/1  10/10/1  11/11/1  12/12/1 
f  13/13/1  14/14/1  15/15/1  16/16/1 
f  17/1/1  1/2/1  4/3/1  18/4/1 
f  19/5/1  5/6/1  8/7/1  20/8/1 
f  21/9/1  9/10/1  12/11/1  22/12/1 
f  23/13/1  13/14/1  16/15/1  24/16/1 
f  25/1/1  17/2/1  18/3/1  26/4/1 
f  27/5/1  19/6/1  20/7/1  28/8/1 
f  29/9/1  21/10/1  22/11/1  30/12/1 
f  31/13/1  23/14/1  24/15/1  32/16/1 
f  33/1/1  25/2/1  26/3/1  34/4/1 
f  35/5/1  27/6/1  28/7/1  36/8/1 
f  37/9/1  29/10/1  30/11/1  38/12/1 
f  39/13/1  31/14/1  32/15/1  40/16/1 
f  41/1/1  33/2/1  34/3/1  42/4/1 
f  43/5/1  35/6/1  36/7/1  44/8/1 
f  45/9/1  37/10/1  38/11/1  46/12/1 
f  47/13/1  39/14/1  40/15/1  48/16/1 
f  49/1/1  41/2/1  42/3/1  50/4/1 
f  51/5/1  43/6/1  44/7/1  52/8/1 
f  53/9/1  45/10/1  46/11/1  54/12/1 
f  55/13/1  47/14/1  48/15/1  56/16/1 
f  57/1/1  49/2/1  50/3/1  58/4/1 
f  59/5/1  51/6/1  52/7/1  60/8/1 
f  61/9/1  53/10/1  54/11/1  62/12/1 
f  63/13/1  55/14/1  56/15/1  64/16/1 
f  65/1/1  57/2/1  58/3/1  66/4/1 
f  67/5/1  59/6/1  60/7/1  68/8/1 
f  69/9/1  61/10/1  62/11/1  70/12/1 
f  71/13/1  63/14/1  64/15/1  72/16/1 
f  73/1/1  65/2/1  66/3/1  74/4/1 
f  75/5/1  67/6/1  68/7/1  76/8/1 
f  77/9/1  69/10/1  70/11/1  78/12/1 
f  79/13/1  71/14/1  72/15/1  80/16/1 
f  81/1/1  73/2/1  74/3/1  82/4/1 
f  83/5/1  75/6/1  76/7/1  84/8/1 
f  85/9/1  77/10/1  78/11/1  86/12/1 
f  87/13/1  79/14/1  80/15/1  88/16/1 
