# Wavefront OBJ file automatically generated by Tiled2Unity

# Vertices (Count = 122)
v -22 -22 0
v -24 -22 0
v -24 -20 0
v -22 -20 0
v -20 -22 0
v -20 -20 0
v -18 -22 0
v -18 -20 0
v -16 -22 0
v -16 -20 0
v -24 -18 0
v -22 -18 0
v -20 -18 0
v -18 -18 0
v -16 -18 0
v -14 -20 0
v -14 -18 0
v -12 -20 0
v -12 -18 0
v -10 -20 0
v -10 -18 0
v -8 -20 0
v -8 -18 0
v -28 -18 0
v -30 -18 0
v -30 -16 0
v -28 -16 0
v -26 -18 0
v -26 -16 0
v -24 -16 0
v -22 -16 0
v -20 -16 0
v -18 -16 0
v -16 -16 0
v -14 -16 0
v -12 -16 0
v -10 -16 0
v -8 -16 0
v -6 -18 0
v -6 -16 0
v -4 -18 0
v -4 -16 0
v -2 -18 0
v -2 -16 0
v 0 -18 0
v 0 -16 0
v -32 -16 0
v -34 -16 0
v -34 -14 0
v -32 -14 0
v -30 -14 0
v -28 -14 0
v -26 -14 0
v -24 -14 0
v -22 -14 0
v -20 -14 0
v -18 -14 0
v -16 -14 0
v -14 -14 0
v -12 -14 0
v -10 -14 0
v -8 -14 0
v -6 -14 0
v -4 -14 0
v -2 -14 0
v 0 -14 0
v -32 -12 0
v -30 -12 0
v -28 -12 0
v -26 -12 0
v -24 -12 0
v -22 -12 0
v -20 -12 0
v -18 -12 0
v -16 -12 0
v -14 -12 0
v -12 -12 0
v -8 -12 0
v -6 -12 0
v -4 -12 0
v -2 -12 0
v 0 -12 0
v -32 -10 0
v -30 -10 0
v -28 -10 0
v -26 -10 0
v -24 -10 0
v -22 -10 0
v -20 -10 0
v -18 -10 0
v -16 -10 0
v -14 -10 0
v -12 -10 0
v -10 -12 0
v -10 -10 0
v -8 -10 0
v -6 -10 0
v -4 -10 0
v -2 -10 0
v -30 -8 0
v -28 -8 0
v -26 -8 0
v -24 -8 0
v -22 -8 0
v -20 -8 0
v -18 -8 0
v -16 -8 0
v -14 -8 0
v -12 -8 0
v -10 -8 0
v -8 -8 0
v -6 -8 0
v -4 -8 0
v -26 -6 0
v -24 -6 0
v -22 -6 0
v -20 -6 0
v -18 -6 0
v -16 -6 0
v -14 -6 0
v -12 -6 0
v -10 -6 0

# Texture Coorindates (Count = 4)
vt 0.04012207 0.6924298
vt 0.07987793 0.6924298
vt 0.07987793 0.7691087
vt 0.04012207 0.7691087

# Normal
vn 0 0 -1

# Groups (Count = 1)
g mesh_[00]_[00]
f  1/1/1  2/2/1  3/3/1  4/4/1 
f  5/1/1  1/2/1  4/3/1  6/4/1 
f  7/1/1  5/2/1  6/3/1  8/4/1 
f  9/1/1  7/2/1  8/3/1  10/4/1 
f  4/1/1  3/2/1  11/3/1  12/4/1 
f  6/1/1  4/2/1  12/3/1  13/4/1 
f  8/1/1  6/2/1  13/3/1  14/4/1 
f  10/1/1  8/2/1  14/3/1  15/4/1 
f  16/1/1  10/2/1  15/3/1  17/4/1 
f  18/1/1  16/2/1  17/3/1  19/4/1 
f  20/1/1  18/2/1  19/3/1  21/4/1 
f  22/1/1  20/2/1  21/3/1  23/4/1 
f  24/1/1  25/2/1  26/3/1  27/4/1 
f  28/1/1  24/2/1  27/3/1  29/4/1 
f  11/1/1  28/2/1  29/3/1  30/4/1 
f  12/1/1  11/2/1  30/3/1  31/4/1 
f  13/1/1  12/2/1  31/3/1  32/4/1 
f  14/1/1  13/2/1  32/3/1  33/4/1 
f  15/1/1  14/2/1  33/3/1  34/4/1 
f  17/1/1  15/2/1  34/3/1  35/4/1 
f  19/1/1  17/2/1  35/3/1  36/4/1 
f  21/1/1  19/2/1  36/3/1  37/4/1 
f  23/1/1  21/2/1  37/3/1  38/4/1 
f  39/1/1  23/2/1  38/3/1  40/4/1 
f  41/1/1  39/2/1  40/3/1  42/4/1 
f  43/1/1  41/2/1  42/3/1  44/4/1 
f  45/1/1  43/2/1  44/3/1  46/4/1 
f  47/1/1  48/2/1  49/3/1  50/4/1 
f  26/1/1  47/2/1  50/3/1  51/4/1 
f  27/1/1  26/2/1  51/3/1  52/4/1 
f  29/1/1  27/2/1  52/3/1  53/4/1 
f  30/1/1  29/2/1  53/3/1  54/4/1 
f  31/1/1  30/2/1  54/3/1  55/4/1 
f  32/1/1  31/2/1  55/3/1  56/4/1 
f  33/1/1  32/2/1  56/3/1  57/4/1 
f  34/1/1  33/2/1  57/3/1  58/4/1 
f  35/1/1  34/2/1  58/3/1  59/4/1 
f  36/1/1  35/2/1  59/3/1  60/4/1 
f  37/1/1  36/2/1  60/3/1  61/4/1 
f  38/1/1  37/2/1  61/3/1  62/4/1 
f  40/1/1  38/2/1  62/3/1  63/4/1 
f  42/1/1  40/2/1  63/3/1  64/4/1 
f  46/1/1  44/2/1  65/3/1  66/4/1 
f  51/1/1  50/2/1  67/3/1  68/4/1 
f  52/1/1  51/2/1  68/3/1  69/4/1 
f  53/1/1  52/2/1  69/3/1  70/4/1 
f  54/1/1  53/2/1  70/3/1  71/4/1 
f  55/1/1  54/2/1  71/3/1  72/4/1 
f  56/1/1  55/2/1  72/3/1  73/4/1 
f  57/1/1  56/2/1  73/3/1  74/4/1 
f  58/1/1  57/2/1  74/3/1  75/4/1 
f  60/1/1  59/2/1  76/3/1  77/4/1 
f  63/1/1  62/2/1  78/3/1  79/4/1 
f  64/1/1  63/2/1  79/3/1  80/4/1 
f  65/1/1  64/2/1  80/3/1  81/4/1 
f  66/1/1  65/2/1  81/3/1  82/4/1 
f  68/1/1  67/2/1  83/3/1  84/4/1 
f  69/1/1  68/2/1  84/3/1  85/4/1 
f  70/1/1  69/2/1  85/3/1  86/4/1 
f  71/1/1  70/2/1  86/3/1  87/4/1 
f  72/1/1  71/2/1  87/3/1  88/4/1 
f  73/1/1  72/2/1  88/3/1  89/4/1 
f  74/1/1  73/2/1  89/3/1  90/4/1 
f  75/1/1  74/2/1  90/3/1  91/4/1 
f  76/1/1  75/2/1  91/3/1  92/4/1 
f  77/1/1  76/2/1  92/3/1  93/4/1 
f  94/1/1  77/2/1  93/3/1  95/4/1 
f  78/1/1  94/2/1  95/3/1  96/4/1 
f  79/1/1  78/2/1  96/3/1  97/4/1 
f  80/1/1  79/2/1  97/3/1  98/4/1 
f  81/1/1  80/2/1  98/3/1  99/4/1 
f  85/1/1  84/2/1  100/3/1  101/4/1 
f  86/1/1  85/2/1  101/3/1  102/4/1 
f  88/1/1  87/2/1  103/3/1  104/4/1 
f  89/1/1  88/2/1  104/3/1  105/4/1 
f  90/1/1  89/2/1  105/3/1  106/4/1 
f  91/1/1  90/2/1  106/3/1  107/4/1 
f  92/1/1  91/2/1  107/3/1  108/4/1 
f  93/1/1  92/2/1  108/3/1  109/4/1 
f  95/1/1  93/2/1  109/3/1  110/4/1 
f  96/1/1  95/2/1  110/3/1  111/4/1 
f  97/1/1  96/2/1  111/3/1  112/4/1 
f  98/1/1  97/2/1  112/3/1  113/4/1 
f  103/1/1  102/2/1  114/3/1  115/4/1 
f  104/1/1  103/2/1  115/3/1  116/4/1 
f  105/1/1  104/2/1  116/3/1  117/4/1 
f  106/1/1  105/2/1  117/3/1  118/4/1 
f  107/1/1  106/2/1  118/3/1  119/4/1 
f  108/1/1  107/2/1  119/3/1  120/4/1 
f  109/1/1  108/2/1  120/3/1  121/4/1 
f  110/1/1  109/2/1  121/3/1  122/4/1 
